<svg width="33" height="32" viewBox="0 0 33 32" fill="none" xmlns="http://www.w3.org/2000/svg">
<path d="M16.8337 8.00008C18.0201 7.99984 19.1918 8.26349 20.2637 8.77193C21.3357 9.28037 22.2811 10.0209 23.0316 10.9398C23.782 11.8587 24.3187 12.9331 24.6027 14.085C24.8867 15.2369 24.911 16.4376 24.6737 17.6001C24.6122 17.9012 24.4486 18.1719 24.2105 18.3663C23.9724 18.5607 23.6744 18.6668 23.367 18.6667H10.3004C9.99299 18.6668 9.69504 18.5607 9.45693 18.3663C9.21881 18.1719 9.05517 17.9012 8.9937 17.6001C8.75641 16.4376 8.78065 15.2369 9.06467 14.085C9.34868 12.9331 9.88535 11.8587 10.6358 10.9398C11.3863 10.0209 12.3317 9.28037 13.4037 8.77193C14.4756 8.26349 15.6473 7.99984 16.8337 8.00008ZM28.8337 14.6667C29.1873 14.6667 29.5265 14.8072 29.7765 15.0573C30.0266 15.3073 30.167 15.6465 30.167 16.0001C30.167 16.3537 30.0266 16.6928 29.7765 16.9429C29.5265 17.1929 29.1873 17.3334 28.8337 17.3334H27.5004C27.1467 17.3334 26.8076 17.1929 26.5576 16.9429C26.3075 16.6928 26.167 16.3537 26.167 16.0001C26.167 15.6465 26.3075 15.3073 26.5576 15.0573C26.8076 14.8072 27.1467 14.6667 27.5004 14.6667H28.8337ZM6.16703 14.6667C6.52065 14.6667 6.85979 14.8072 7.10984 15.0573C7.35989 15.3073 7.50037 15.6465 7.50037 16.0001C7.50037 16.3537 7.35989 16.6928 7.10984 16.9429C6.85979 17.1929 6.52065 17.3334 6.16703 17.3334H4.8337C4.48008 17.3334 4.14094 17.1929 3.89089 16.9429C3.64084 16.6928 3.50037 16.3537 3.50037 16.0001C3.50037 15.6465 3.64084 15.3073 3.89089 15.0573C4.14094 14.8072 4.48008 14.6667 4.8337 14.6667H6.16703ZM26.2617 6.57341C26.5117 6.82345 26.6521 7.16253 26.6521 7.51608C26.6521 7.86963 26.5117 8.20871 26.2617 8.45875L25.319 9.40141C25.196 9.52876 25.0489 9.63034 24.8862 9.70022C24.7236 9.7701 24.5486 9.80688 24.3716 9.80842C24.1945 9.80995 24.019 9.77622 23.8551 9.70918C23.6912 9.64214 23.5424 9.54313 23.4172 9.41794C23.292 9.29275 23.193 9.14388 23.1259 8.98002C23.0589 8.81616 23.0252 8.64059 23.0267 8.46355C23.0282 8.28651 23.065 8.11155 23.1349 7.94888C23.2048 7.7862 23.3064 7.63908 23.4337 7.51608L24.3764 6.57341C24.6264 6.32345 24.9655 6.18303 25.319 6.18303C25.6726 6.18303 26.0117 6.32345 26.2617 6.57341ZM9.29103 6.57341L10.2337 7.51608C10.4706 7.76868 10.5999 8.10353 10.5943 8.44977C10.5886 8.79602 10.4485 9.12649 10.2036 9.37127C9.95862 9.61605 9.62805 9.75592 9.2818 9.7613C8.93556 9.76668 8.6008 9.63713 8.34837 9.40008L7.4057 8.45741C7.27546 8.33511 7.17113 8.18788 7.09891 8.02447C7.02668 7.86106 6.98803 7.6848 6.98526 7.50616C6.98249 7.32753 7.01564 7.15015 7.08276 6.98458C7.14987 6.819 7.24958 6.6686 7.37596 6.54232C7.50233 6.41603 7.6528 6.31643 7.81842 6.24943C7.98405 6.18243 8.16144 6.1494 8.34008 6.1523C8.51872 6.1552 8.69495 6.19398 8.85831 6.26632C9.02167 6.33866 9.16882 6.44309 9.29103 6.57341ZM16.8337 2.66675C17.1873 2.66675 17.5265 2.80722 17.7765 3.05727C18.0266 3.30732 18.167 3.64646 18.167 4.00008V5.33341C18.167 5.68704 18.0266 6.02618 17.7765 6.27622C17.5265 6.52627 17.1873 6.66675 16.8337 6.66675C16.4801 6.66675 16.1409 6.52627 15.8909 6.27622C15.6408 6.02618 15.5004 5.68704 15.5004 5.33341V4.00008C15.5004 3.64646 15.6408 3.30732 15.8909 3.05727C16.1409 2.80722 16.4801 2.66675 16.8337 2.66675ZM6.16703 20.0001C5.81341 20.0001 5.47427 20.1406 5.22422 20.3906C4.97418 20.6407 4.8337 20.9798 4.8337 21.3334C4.8337 21.687 4.97418 22.0262 5.22422 22.2762C5.47427 22.5263 5.81341 22.6667 6.16703 22.6667H27.5004C27.854 22.6667 28.1931 22.5263 28.4432 22.2762C28.6932 22.0262 28.8337 21.687 28.8337 21.3334C28.8337 20.9798 28.6932 20.6407 28.4432 20.3906C28.1931 20.1406 27.854 20.0001 27.5004 20.0001H6.16703ZM10.167 25.3334C9.81341 25.3334 9.47427 25.4739 9.22422 25.7239C8.97418 25.974 8.8337 26.3131 8.8337 26.6667C8.8337 27.0204 8.97418 27.3595 9.22422 27.6096C9.47427 27.8596 9.81341 28.0001 10.167 28.0001H23.5004C23.854 28.0001 24.1931 27.8596 24.4432 27.6096C24.6932 27.3595 24.8337 27.0204 24.8337 26.6667C24.8337 26.3131 24.6932 25.974 24.4432 25.7239C24.1931 25.4739 23.854 25.3334 23.5004 25.3334H10.167Z" fill="#F5F5F5"/>
<path d="M16.6114 17.3333V12M16.6114 12L13.9447 14.6667M16.6114 12L19.278 14.6667" stroke="#FB7D10" stroke-width="1.5" stroke-linecap="round" stroke-linejoin="round"/>
</svg>
