<svg width="28" height="30" viewBox="0 0 28 30" fill="none" xmlns="http://www.w3.org/2000/svg">
<path d="M13.8336 6.00008C15.02 5.99984 16.1916 6.26349 17.2636 6.77193C18.3356 7.28037 19.281 8.02088 20.0315 8.9398C20.7819 9.85873 21.3186 10.9331 21.6026 12.085C21.8866 13.2369 21.9109 14.4376 21.6736 15.6001C21.6121 15.9012 21.4485 16.1719 21.2104 16.3663C20.9722 16.5607 20.6743 16.6668 20.3669 16.6667H7.30024C6.99287 16.6668 6.69491 16.5607 6.4568 16.3663C6.21869 16.1719 6.05505 15.9012 5.99358 15.6001C5.75629 14.4376 5.78053 13.2369 6.06455 12.085C6.34856 10.9331 6.88523 9.85873 7.63569 8.9398C8.38614 8.02088 9.3316 7.28037 10.4036 6.77193C11.4755 6.26349 12.6471 5.99984 13.8336 6.00008ZM25.8336 12.6667C26.1872 12.6667 26.5263 12.8072 26.7764 13.0573C27.0264 13.3073 27.1669 13.6465 27.1669 14.0001C27.1669 14.3537 27.0264 14.6928 26.7764 14.9429C26.5263 15.1929 26.1872 15.3334 25.8336 15.3334H24.5002C24.1466 15.3334 23.8075 15.1929 23.5574 14.9429C23.3074 14.6928 23.1669 14.3537 23.1669 14.0001C23.1669 13.6465 23.3074 13.3073 23.5574 13.0573C23.8075 12.8072 24.1466 12.6667 24.5002 12.6667H25.8336ZM3.16691 12.6667C3.52053 12.6667 3.85967 12.8072 4.10972 13.0573C4.35977 13.3073 4.50024 13.6465 4.50024 14.0001C4.50024 14.3537 4.35977 14.6928 4.10972 14.9429C3.85967 15.1929 3.52053 15.3334 3.16691 15.3334H1.83358C1.47996 15.3334 1.14082 15.1929 0.890768 14.9429C0.64072 14.6928 0.500244 14.3537 0.500244 14.0001C0.500244 13.6465 0.64072 13.3073 0.890768 13.0573C1.14082 12.8072 1.47996 12.6667 1.83358 12.6667H3.16691ZM23.2616 4.57341C23.5115 4.82345 23.652 5.16253 23.652 5.51608C23.652 5.86963 23.5115 6.20871 23.2616 6.45875L22.3189 7.40141C22.1959 7.52876 22.0488 7.63034 21.8861 7.70022C21.7234 7.7701 21.5485 7.80688 21.3714 7.80842C21.1944 7.80995 21.0188 7.77622 20.855 7.70918C20.6911 7.64214 20.5422 7.54313 20.417 7.41794C20.2919 7.29275 20.1929 7.14388 20.1258 6.98002C20.0588 6.81616 20.025 6.64059 20.0266 6.46355C20.0281 6.28651 20.0649 6.11155 20.1348 5.94888C20.2047 5.7862 20.3062 5.63908 20.4336 5.51608L21.3762 4.57341C21.6263 4.32345 21.9654 4.18303 22.3189 4.18303C22.6725 4.18303 23.0115 4.32345 23.2616 4.57341ZM6.29091 4.57341L7.23358 5.51608C7.47045 5.76868 7.59976 6.10353 7.59413 6.44977C7.58851 6.79602 7.4484 7.12649 7.20345 7.37127C6.9585 7.61605 6.62793 7.75592 6.28168 7.7613C5.93543 7.76668 5.60068 7.63713 5.34824 7.40008L4.40558 6.45741C4.27534 6.33511 4.17101 6.18788 4.09878 6.02447C4.02656 5.86106 3.98791 5.6848 3.98514 5.50616C3.98236 5.32753 4.01552 5.15015 4.08263 4.98458C4.14975 4.819 4.24946 4.6686 4.37583 4.54232C4.50221 4.41603 4.65268 4.31643 4.8183 4.24943C4.98392 4.18243 5.16132 4.1494 5.33996 4.1523C5.51859 4.1552 5.69483 4.19398 5.85819 4.26632C6.02155 4.33866 6.1687 4.44309 6.29091 4.57341ZM13.8336 0.666748C14.1872 0.666748 14.5263 0.807224 14.7764 1.05727C15.0264 1.30732 15.1669 1.64646 15.1669 2.00008V3.33341C15.1669 3.68704 15.0264 4.02618 14.7764 4.27622C14.5263 4.52627 14.1872 4.66675 13.8336 4.66675C13.48 4.66675 13.1408 4.52627 12.8908 4.27622C12.6407 4.02618 12.5002 3.68704 12.5002 3.33341V2.00008C12.5002 1.64646 12.6407 1.30732 12.8908 1.05727C13.1408 0.807224 13.48 0.666748 13.8336 0.666748ZM3.16691 18.0001C2.81329 18.0001 2.47415 18.1406 2.2241 18.3906C1.97405 18.6407 1.83358 18.9798 1.83358 19.3334C1.83358 19.687 1.97405 20.0262 2.2241 20.2762C2.47415 20.5263 2.81329 20.6667 3.16691 20.6667H24.5002C24.8539 20.6667 25.193 20.5263 25.4431 20.2762C25.6931 20.0262 25.8336 19.687 25.8336 19.3334C25.8336 18.9798 25.6931 18.6407 25.4431 18.3906C25.193 18.1406 24.8539 18.0001 24.5002 18.0001H3.16691ZM7.16691 23.3334C6.81329 23.3334 6.47415 23.4739 6.2241 23.7239C5.97405 23.974 5.83358 24.3131 5.83358 24.6667C5.83358 25.0204 5.97405 25.3595 6.2241 25.6096C6.47415 25.8596 6.81329 26.0001 7.16691 26.0001H20.5002C20.8539 26.0001 21.193 25.8596 21.4431 25.6096C21.6931 25.3595 21.8336 25.0204 21.8336 24.6667C21.8336 24.3131 21.6931 23.974 21.4431 23.7239C21.193 23.4739 20.8539 23.3334 20.5002 23.3334H7.16691Z" fill="#FB7D10"/>
<path d="M13.6112 15.3333V10M13.6112 10L10.9446 12.6667M13.6112 10L16.2779 12.6667" stroke="#E9E9E9" stroke-width="1.5" stroke-linecap="round" stroke-linejoin="round"/>
</svg>
