<svg width="32" height="32" viewBox="0 0 32 32" fill="none" xmlns="http://www.w3.org/2000/svg">
<path fill-rule="evenodd" clip-rule="evenodd" d="M30.7071 20.7071C30.8946 20.5196 31 20.2652 31 20C31 19.7348 30.8946 19.4804 30.7071 19.2929C30.5196 19.1054 30.2652 19 30 19H24.9438H7.05625H2C1.73478 19 1.48043 19.1054 1.29289 19.2929C1.10536 19.4804 1 19.7348 1 20C1 20.2652 1.10536 20.5196 1.29289 20.7071C1.48043 20.8946 1.73478 21 2 21H30C30.2652 21 30.5196 20.8946 30.7071 20.7071ZM5.29289 24.2929C5.48043 24.1054 5.73478 24 6 24H26C26.2652 24 26.5196 24.1054 26.7071 24.2929C26.8946 24.4804 27 24.7348 27 25C27 25.2652 26.8946 25.5196 26.7071 25.7071C26.5196 25.8946 26.2652 26 26 26H6C5.73478 26 5.48043 25.8946 5.29289 25.7071C5.10536 25.5196 5 25.2652 5 25C5 24.7348 5.10536 24.4804 5.29289 24.2929Z" fill="#F5F5F5"/>
<path d="M16.3336 12.05C16.506 12.05 16.6714 12.1185 16.7933 12.2404C16.9152 12.3623 16.9837 12.5276 16.9837 12.7V13.35C16.9837 13.5224 16.9152 13.6877 16.7933 13.8096C16.6714 13.9315 16.506 14 16.3336 14C16.1612 14 15.9959 13.9315 15.874 13.8096C15.7521 13.6877 15.6836 13.5224 15.6836 13.35V12.7C15.6836 12.5276 15.7521 12.3623 15.874 12.2404C15.9959 12.1185 16.1612 12.05 16.3336 12.05ZM20.4705 10.7175L20.93 11.1771C21.0484 11.2996 21.114 11.4638 21.1125 11.6343C21.111 11.8047 21.0426 11.9677 20.9221 12.0882C20.8016 12.2087 20.6386 12.2771 20.4681 12.2786C20.2977 12.2801 20.1335 12.2146 20.0109 12.0961L19.5513 11.6366C19.4329 11.514 19.3674 11.3498 19.3689 11.1794C19.3703 11.009 19.4387 10.8459 19.5592 10.7254C19.6797 10.6049 19.8428 10.5365 20.0132 10.5351C20.1837 10.5336 20.3479 10.5991 20.4705 10.7175ZM12.1968 10.7175C12.3138 10.6009 12.4707 10.5332 12.6358 10.5282C12.8009 10.5232 12.9617 10.5811 13.0856 10.6904C13.2095 10.7996 13.2871 10.9519 13.3028 11.1163C13.3184 11.2807 13.2709 11.4449 13.1699 11.5755L13.1159 11.6366L12.6564 12.0961C12.5394 12.2127 12.3824 12.2804 12.2173 12.2854C12.0523 12.2905 11.8915 12.2325 11.7676 12.1233C11.6437 12.0141 11.5661 11.8618 11.5504 11.6974C11.5347 11.533 11.5822 11.3688 11.6833 11.2382L11.7372 11.1771L12.1968 10.7175ZM16.3336 3.6C17.368 3.6 18.3601 4.01089 19.0915 4.74228C19.8229 5.47368 20.2338 6.46566 20.2338 7.5C20.2338 8.53434 19.8229 9.52633 19.0915 10.2577C18.3601 10.9891 17.368 11.4 16.3336 11.4C15.2992 11.4 14.3072 10.9891 13.5758 10.2577C12.8443 9.52633 12.4334 8.53434 12.4334 7.5C12.4334 6.46566 12.8443 5.47368 13.5758 4.74228C14.3072 4.01089 15.2992 3.6 16.3336 3.6ZM11.1333 6.85C11.299 6.85018 11.4584 6.91362 11.5789 7.02735C11.6993 7.14108 11.7718 7.29652 11.7815 7.46191C11.7912 7.62729 11.7374 7.79015 11.6311 7.91719C11.5248 8.04424 11.3739 8.12588 11.2094 8.14545L11.1333 8.15H10.4833C10.3176 8.14982 10.1583 8.08638 10.0378 7.97265C9.91731 7.85892 9.84481 7.70348 9.8351 7.53809C9.82539 7.37271 9.87921 7.20985 9.98554 7.08281C10.0919 6.95576 10.2427 6.87412 10.4072 6.85455L10.4833 6.85H11.1333ZM22.1839 6.85C22.3563 6.85 22.5217 6.91848 22.6436 7.04038C22.7655 7.16228 22.834 7.32761 22.834 7.5C22.834 7.67239 22.7655 7.83772 22.6436 7.95962C22.5217 8.08152 22.3563 8.15 22.1839 8.15H21.5339C21.3615 8.15 21.1962 8.08152 21.0743 7.95962C20.9524 7.83772 20.8839 7.67239 20.8839 7.5C20.8839 7.32761 20.9524 7.16228 21.0743 7.04038C21.1962 6.91848 21.3615 6.85 21.5339 6.85H22.1839ZM11.7372 2.90385C11.8492 2.79194 11.9981 2.72471 12.1561 2.71477C12.314 2.70484 12.4702 2.75289 12.5953 2.8499L12.6564 2.90385L13.1159 3.3634C13.2325 3.48037 13.3002 3.63733 13.3053 3.8024C13.3103 3.96747 13.2523 4.12826 13.1431 4.25213C13.0339 4.376 12.8816 4.45365 12.7172 4.46931C12.5528 4.48497 12.3886 4.43747 12.2579 4.33645L12.1968 4.2825L11.7372 3.82295C11.6154 3.70106 11.5469 3.53576 11.5469 3.3634C11.5469 3.19104 11.6154 3.02574 11.7372 2.90385ZM20.93 2.90385C21.0519 3.02574 21.1204 3.19104 21.1204 3.3634C21.1204 3.53576 21.0519 3.70106 20.93 3.82295L20.4705 4.2825C20.4105 4.34458 20.3388 4.3941 20.2595 4.42817C20.1801 4.46223 20.0948 4.48016 20.0085 4.48091C19.9222 4.48166 19.8366 4.46522 19.7567 4.43253C19.6769 4.39985 19.6043 4.35159 19.5432 4.29056C19.4822 4.22953 19.4339 4.15695 19.4013 4.07707C19.3686 3.99719 19.3521 3.9116 19.3529 3.82529C19.3536 3.73898 19.3716 3.65369 19.4056 3.57439C19.4397 3.49508 19.4892 3.42336 19.5513 3.3634L20.0109 2.90385C20.1328 2.78199 20.2981 2.71354 20.4705 2.71354C20.6428 2.71354 20.8081 2.78199 20.93 2.90385ZM16.3336 1C16.506 1 16.6714 1.06848 16.7933 1.19038C16.9152 1.31228 16.9837 1.47761 16.9837 1.65V2.3C16.9837 2.47239 16.9152 2.63772 16.7933 2.75962C16.6714 2.88152 16.506 2.95 16.3336 2.95C16.1612 2.95 15.9959 2.88152 15.874 2.75962C15.7521 2.63772 15.6836 2.47239 15.6836 2.3V1.65C15.6836 1.47761 15.7521 1.31228 15.874 1.19038C15.9959 1.06848 16.1612 1 16.3336 1Z" fill="#F5F5F5"/>
<path d="M3.83398 15.6667L8.50065 11M8.50065 11V15M8.50065 11H4.50065" stroke="#F5F5F5" stroke-width="1.5" stroke-linecap="round" stroke-linejoin="round"/>
</svg>
