<svg width="33" height="32" viewBox="0 0 33 32" fill="none" xmlns="http://www.w3.org/2000/svg">
<path fill-rule="evenodd" clip-rule="evenodd" d="M30.8736 20.7071C31.0611 20.5196 31.1665 20.2652 31.1665 20C31.1665 19.7348 31.0611 19.4804 30.8736 19.2929C30.6861 19.1054 30.4317 19 30.1665 19H25.1103H7.22275H2.1665C1.90129 19 1.64693 19.1054 1.4594 19.2929C1.27186 19.4804 1.1665 19.7348 1.1665 20C1.1665 20.2652 1.27186 20.5196 1.4594 20.7071C1.64693 20.8946 1.90129 21 2.1665 21H30.1665C30.4317 21 30.6861 20.8946 30.8736 20.7071ZM5.4594 24.2929C5.64693 24.1054 5.90129 24 6.1665 24H26.1665C26.4317 24 26.6861 24.1054 26.8736 24.2929C27.0611 24.4804 27.1665 24.7348 27.1665 25C27.1665 25.2652 27.0611 25.5196 26.8736 25.7071C26.6861 25.8946 26.4317 26 26.1665 26H6.1665C5.90129 26 5.64693 25.8946 5.4594 25.7071C5.27186 25.5196 5.1665 25.2652 5.1665 25C5.1665 24.7348 5.27186 24.4804 5.4594 24.2929Z" fill="#FB7D10"/>
<path d="M16.5001 12.05C16.6725 12.05 16.8379 12.1185 16.9598 12.2404C17.0817 12.3623 17.1502 12.5276 17.1502 12.7V13.35C17.1502 13.5224 17.0817 13.6877 16.9598 13.8096C16.8379 13.9315 16.6725 14 16.5001 14C16.3277 14 16.1624 13.9315 16.0405 13.8096C15.9186 13.6877 15.8501 13.5224 15.8501 13.35V12.7C15.8501 12.5276 15.9186 12.3623 16.0405 12.2404C16.1624 12.1185 16.3277 12.05 16.5001 12.05ZM20.637 10.7175L21.0965 11.1771C21.2149 11.2996 21.2805 11.4638 21.279 11.6343C21.2775 11.8047 21.2091 11.9677 21.0886 12.0882C20.9681 12.2087 20.8051 12.2771 20.6346 12.2786C20.4642 12.2801 20.3 12.2146 20.1774 12.0961L19.7178 11.6366C19.5994 11.514 19.5339 11.3498 19.5354 11.1794C19.5368 11.009 19.6052 10.8459 19.7257 10.7254C19.8462 10.6049 20.0093 10.5365 20.1797 10.5351C20.3502 10.5336 20.5144 10.5991 20.637 10.7175ZM12.3633 10.7175C12.4803 10.6009 12.6372 10.5332 12.8023 10.5282C12.9674 10.5232 13.1282 10.5811 13.2521 10.6904C13.376 10.7996 13.4536 10.9519 13.4693 11.1163C13.4849 11.2807 13.4374 11.4449 13.3364 11.5755L13.2825 11.6366L12.8229 12.0961C12.7059 12.2127 12.5489 12.2804 12.3839 12.2854C12.2188 12.2905 12.058 12.2325 11.9341 12.1233C11.8102 12.0141 11.7326 11.8618 11.7169 11.6974C11.7012 11.533 11.7487 11.3688 11.8498 11.2381L11.9037 11.1771L12.3633 10.7175ZM16.5001 3.6C17.5345 3.6 18.5266 4.01089 19.258 4.74228C19.9894 5.47368 20.4003 6.46566 20.4003 7.5C20.4003 8.53434 19.9894 9.52633 19.258 10.2577C18.5266 10.9891 17.5345 11.4 16.5001 11.4C15.4657 11.4 14.4737 10.9891 13.7423 10.2577C13.0108 9.52633 12.5999 8.53434 12.5999 7.5C12.5999 6.46566 13.0108 5.47368 13.7423 4.74228C14.4737 4.01089 15.4657 3.6 16.5001 3.6ZM11.2998 6.85C11.4655 6.85018 11.6249 6.91362 11.7454 7.02735C11.8658 7.14108 11.9383 7.29652 11.948 7.46191C11.9577 7.62729 11.9039 7.79015 11.7976 7.91719C11.6913 8.04424 11.5404 8.12588 11.3759 8.14545L11.2998 8.15H10.6498C10.4841 8.14982 10.3248 8.08638 10.2043 7.97265C10.0838 7.85892 10.0113 7.70348 10.0016 7.53809C9.9919 7.37271 10.0457 7.20985 10.152 7.08281C10.2584 6.95576 10.4092 6.87412 10.5737 6.85455L10.6498 6.85H11.2998ZM22.3505 6.85C22.5229 6.85 22.6882 6.91848 22.8101 7.04038C22.932 7.16228 23.0005 7.32761 23.0005 7.5C23.0005 7.67239 22.932 7.83772 22.8101 7.95962C22.6882 8.08152 22.5229 8.15 22.3505 8.15H21.7004C21.528 8.15 21.3627 8.08152 21.2408 7.95962C21.1189 7.83772 21.0504 7.67239 21.0504 7.5C21.0504 7.32761 21.1189 7.16228 21.2408 7.04038C21.3627 6.91848 21.528 6.85 21.7004 6.85H22.3505ZM11.9037 2.90385C12.0157 2.79194 12.1646 2.72471 12.3226 2.71477C12.4805 2.70484 12.6367 2.75289 12.7618 2.8499L12.8229 2.90385L13.2825 3.3634C13.399 3.48037 13.4667 3.63733 13.4718 3.8024C13.4768 3.96747 13.4188 4.12826 13.3096 4.25213C13.2004 4.376 13.0481 4.45365 12.8837 4.46931C12.7193 4.48497 12.5551 4.43747 12.4244 4.33645L12.3633 4.2825L11.9037 3.82295C11.7819 3.70106 11.7134 3.53576 11.7134 3.3634C11.7134 3.19104 11.7819 3.02574 11.9037 2.90385ZM21.0965 2.90385C21.2184 3.02574 21.2869 3.19104 21.2869 3.3634C21.2869 3.53576 21.2184 3.70106 21.0965 3.82295L20.637 4.2825C20.577 4.34458 20.5053 4.3941 20.426 4.42817C20.3467 4.46223 20.2614 4.48016 20.175 4.48091C20.0887 4.48166 20.0031 4.46522 19.9232 4.43253C19.8434 4.39985 19.7708 4.35159 19.7097 4.29056C19.6487 4.22953 19.6004 4.15695 19.5678 4.07707C19.5351 3.99719 19.5186 3.9116 19.5194 3.82529C19.5201 3.73898 19.5381 3.65369 19.5721 3.57439C19.6062 3.49508 19.6557 3.42336 19.7178 3.3634L20.1774 2.90385C20.2993 2.78199 20.4646 2.71354 20.637 2.71354C20.8093 2.71354 20.9746 2.78199 21.0965 2.90385ZM16.5001 1C16.6725 1 16.8379 1.06848 16.9598 1.19038C17.0817 1.31228 17.1502 1.47761 17.1502 1.65V2.3C17.1502 2.47239 17.0817 2.63772 16.9598 2.75962C16.8379 2.88152 16.6725 2.95 16.5001 2.95C16.3277 2.95 16.1624 2.88152 16.0405 2.75962C15.9186 2.63772 15.8501 2.47239 15.8501 2.3V1.65C15.8501 1.47761 15.9186 1.31228 16.0405 1.19038C16.1624 1.06848 16.3277 1 16.5001 1Z" fill="#FB7D10"/>
<path d="M4.00049 15.6667L8.66715 11M8.66715 11V15M8.66715 11H4.66715" stroke="#FB7D10" stroke-width="1.5" stroke-linecap="round" stroke-linejoin="round"/>
</svg>
