<svg width="27" height="30" viewBox="0 0 27 30" fill="none" xmlns="http://www.w3.org/2000/svg">
<path d="M14.1252 28.344L14.1092 28.3467L14.0146 28.3933L13.9879 28.3987L13.9692 28.3933L13.8746 28.3453C13.8603 28.3418 13.8497 28.3444 13.8426 28.3533L13.8372 28.3667L13.8146 28.9373L13.8212 28.964L13.8346 28.9813L13.9732 29.08L13.9932 29.0853L14.0092 29.08L14.1479 28.9813L14.1639 28.96L14.1692 28.9373L14.1466 28.368C14.143 28.3538 14.1359 28.3458 14.1252 28.344ZM14.4772 28.1933L14.4586 28.196L14.2132 28.32L14.1999 28.3333L14.1959 28.348L14.2199 28.9213L14.2266 28.9373L14.2372 28.948L14.5052 29.0707C14.5221 29.0751 14.535 29.0716 14.5439 29.06L14.5492 29.0413L14.5039 28.2227C14.4995 28.2058 14.4906 28.196 14.4772 28.1933ZM13.5239 28.196C13.518 28.1924 13.511 28.1913 13.5043 28.1928C13.4976 28.1943 13.4917 28.1983 13.4879 28.204L13.4799 28.2227L13.4346 29.0413C13.4355 29.0573 13.443 29.068 13.4572 29.0733L13.4772 29.0707L13.7452 28.9467L13.7586 28.936L13.7626 28.9213L13.7866 28.348L13.7826 28.332L13.7692 28.3187L13.5239 28.196Z" fill="#F5F5F5"/>
<path d="M13.3333 5.33333C14.5198 5.33309 15.6914 5.59674 16.7634 6.10518C17.8353 6.61362 18.7808 7.35413 19.5312 8.27306C20.2817 9.19198 20.8184 10.2663 21.1024 11.4183C21.3864 12.5702 21.4106 13.7709 21.1733 14.9333C21.1119 15.2345 20.9482 15.5052 20.7101 15.6995C20.472 15.8939 20.174 16.0001 19.8667 16H6.8C6.49263 16.0001 6.19467 15.8939 5.95656 15.6995C5.71845 15.5052 5.55481 15.2345 5.49333 14.9333C5.25605 13.7709 5.28029 12.5702 5.5643 11.4183C5.84831 10.2663 6.38499 9.19198 7.13544 8.27306C7.8859 7.35413 8.83135 6.61362 9.90331 6.10518C10.9753 5.59674 12.1469 5.33309 13.3333 5.33333ZM25.3333 12C25.687 12 26.0261 12.1405 26.2761 12.3905C26.5262 12.6406 26.6667 12.9797 26.6667 13.3333C26.6667 13.687 26.5262 14.0261 26.2761 14.2761C26.0261 14.5262 25.687 14.6667 25.3333 14.6667H24C23.6464 14.6667 23.3072 14.5262 23.0572 14.2761C22.8071 14.0261 22.6667 13.687 22.6667 13.3333C22.6667 12.9797 22.8071 12.6406 23.0572 12.3905C23.3072 12.1405 23.6464 12 24 12H25.3333ZM2.66667 12C3.02029 12 3.35943 12.1405 3.60948 12.3905C3.85952 12.6406 4 12.9797 4 13.3333C4 13.687 3.85952 14.0261 3.60948 14.2761C3.35943 14.5262 3.02029 14.6667 2.66667 14.6667H1.33333C0.979711 14.6667 0.640573 14.5262 0.390524 14.2761C0.140476 14.0261 0 13.687 0 13.3333C0 12.9797 0.140476 12.6406 0.390524 12.3905C0.640573 12.1405 0.979711 12 1.33333 12H2.66667ZM22.7613 3.90667C23.0113 4.1567 23.1517 4.49578 23.1517 4.84933C23.1517 5.20289 23.0113 5.54196 22.7613 5.792L21.8187 6.73467C21.6957 6.86201 21.5485 6.96359 21.3859 7.03347C21.2232 7.10335 21.0482 7.14013 20.8712 7.14167C20.6942 7.14321 20.5186 7.10947 20.3547 7.04243C20.1909 6.97539 20.042 6.87638 19.9168 6.75119C19.7916 6.626 19.6926 6.47713 19.6256 6.31327C19.5585 6.14941 19.5248 5.97384 19.5263 5.7968C19.5279 5.61976 19.5647 5.4448 19.6345 5.28213C19.7044 5.11946 19.806 4.97233 19.9333 4.84933L20.876 3.90667C21.126 3.65671 21.4651 3.51629 21.8187 3.51629C22.1722 3.51629 22.5113 3.65671 22.7613 3.90667ZM5.79067 3.90667L6.73333 4.84933C6.97021 5.10193 7.09951 5.43678 7.09389 5.78303C7.08827 6.12927 6.94816 6.45974 6.70321 6.70452C6.45826 6.9493 6.12768 7.08917 5.78144 7.09455C5.43519 7.09993 5.10043 6.97039 4.848 6.73333L3.90533 5.79067C3.7751 5.66836 3.67077 5.52114 3.59854 5.35773C3.52632 5.19431 3.48767 5.01806 3.48489 4.83942C3.48212 4.66078 3.51527 4.4834 3.58239 4.31783C3.64951 4.15225 3.74921 4.00186 3.87559 3.87557C4.00197 3.74928 4.15244 3.64968 4.31806 3.58268C4.48368 3.51568 4.66108 3.48265 4.83971 3.48555C5.01835 3.48846 5.19458 3.52723 5.35794 3.59957C5.5213 3.67191 5.66846 3.77634 5.79067 3.90667ZM13.3333 0C13.687 0 14.0261 0.140476 14.2761 0.390524C14.5262 0.640573 14.6667 0.979711 14.6667 1.33333V2.66667C14.6667 3.02029 14.5262 3.35943 14.2761 3.60948C14.0261 3.85952 13.687 4 13.3333 4C12.9797 4 12.6406 3.85952 12.3905 3.60948C12.1405 3.35943 12 3.02029 12 2.66667V1.33333C12 0.979711 12.1405 0.640573 12.3905 0.390524C12.6406 0.140476 12.9797 0 13.3333 0ZM2.66667 17.3333C2.31304 17.3333 1.97391 17.4738 1.72386 17.7239C1.47381 17.9739 1.33333 18.313 1.33333 18.6667C1.33333 19.0203 1.47381 19.3594 1.72386 19.6095C1.97391 19.8595 2.31304 20 2.66667 20H24C24.3536 20 24.6928 19.8595 24.9428 19.6095C25.1929 19.3594 25.3333 19.0203 25.3333 18.6667C25.3333 18.313 25.1929 17.9739 24.9428 17.7239C24.6928 17.4738 24.3536 17.3333 24 17.3333H2.66667ZM6.66667 22.6667C6.31304 22.6667 5.97391 22.8071 5.72386 23.0572C5.47381 23.3072 5.33333 23.6464 5.33333 24C5.33333 24.3536 5.47381 24.6928 5.72386 24.9428C5.97391 25.1929 6.31304 25.3333 6.66667 25.3333H20C20.3536 25.3333 20.6928 25.1929 20.9428 24.9428C21.1929 24.6928 21.3333 24.3536 21.3333 24C21.3333 23.6464 21.1929 23.3072 20.9428 23.0572C20.6928 22.8071 20.3536 22.6667 20 22.6667H6.66667Z" fill="#F5F5F5"/>
<path d="M13.1107 9.33326L13.1107 14.6666M13.1107 14.6666L15.7773 11.9999M13.1107 14.6666L10.444 11.9999" stroke="#FB7D10" stroke-width="1.5" stroke-linecap="round" stroke-linejoin="round"/>
</svg>
