<svg width="27" height="30" viewBox="0 0 27 30" fill="none" xmlns="http://www.w3.org/2000/svg">
<path d="M13.5003 6.00008C14.6868 5.99984 15.8584 6.26349 16.9303 6.77193C18.0023 7.28037 18.9478 8.02088 19.6982 8.9398C20.4487 9.85873 20.9853 10.9331 21.2694 12.085C21.5534 13.2369 21.5776 14.4376 21.3403 15.6001C21.2788 15.9012 21.1152 16.1719 20.8771 16.3663C20.639 16.5607 20.341 16.6668 20.0337 16.6667H6.96699C6.65962 16.6668 6.36166 16.5607 6.12355 16.3663C5.88544 16.1719 5.7218 15.9012 5.66033 15.6001C5.42304 14.4376 5.44728 13.2369 5.73129 12.085C6.01531 10.9331 6.55198 9.85873 7.30243 8.9398C8.05289 8.02088 8.99834 7.28037 10.0703 6.77193C11.1423 6.26349 12.3139 5.99984 13.5003 6.00008ZM25.5003 12.6667C25.8539 12.6667 26.1931 12.8072 26.4431 13.0573C26.6932 13.3073 26.8337 13.6465 26.8337 14.0001C26.8337 14.3537 26.6932 14.6928 26.4431 14.9429C26.1931 15.1929 25.8539 15.3334 25.5003 15.3334H24.167C23.8134 15.3334 23.4742 15.1929 23.2242 14.9429C22.9741 14.6928 22.8337 14.3537 22.8337 14.0001C22.8337 13.6465 22.9741 13.3073 23.2242 13.0573C23.4742 12.8072 23.8134 12.6667 24.167 12.6667H25.5003ZM2.83366 12.6667C3.18728 12.6667 3.52642 12.8072 3.77647 13.0573C4.02652 13.3073 4.16699 13.6465 4.16699 14.0001C4.16699 14.3537 4.02652 14.6928 3.77647 14.9429C3.52642 15.1929 3.18728 15.3334 2.83366 15.3334H1.50033C1.1467 15.3334 0.807565 15.1929 0.557516 14.9429C0.307468 14.6928 0.166992 14.3537 0.166992 14.0001C0.166992 13.6465 0.307468 13.3073 0.557516 13.0573C0.807565 12.8072 1.1467 12.6667 1.50033 12.6667H2.83366ZM22.9283 4.57341C23.1783 4.82345 23.3187 5.16253 23.3187 5.51608C23.3187 5.86963 23.1783 6.20871 22.9283 6.45875L21.9857 7.40141C21.8627 7.52876 21.7155 7.63034 21.5529 7.70022C21.3902 7.7701 21.2152 7.80688 21.0382 7.80842C20.8612 7.80995 20.6856 7.77622 20.5217 7.70918C20.3579 7.64214 20.209 7.54313 20.0838 7.41794C19.9586 7.29275 19.8596 7.14388 19.7926 6.98002C19.7255 6.81616 19.6918 6.64059 19.6933 6.46355C19.6949 6.28651 19.7316 6.11155 19.8015 5.94888C19.8714 5.7862 19.973 5.63908 20.1003 5.51608L21.043 4.57341C21.293 4.32345 21.6321 4.18303 21.9857 4.18303C22.3392 4.18303 22.6783 4.32345 22.9283 4.57341ZM5.95766 4.57341L6.90033 5.51608C7.1372 5.76868 7.2665 6.10353 7.26088 6.44977C7.25526 6.79602 7.11515 7.12649 6.8702 7.37127C6.62525 7.61605 6.29468 7.75592 5.94843 7.7613C5.60218 7.76668 5.26743 7.63713 5.01499 7.40008L4.07233 6.45741C3.94209 6.33511 3.83776 6.18788 3.76553 6.02447C3.69331 5.86106 3.65466 5.6848 3.65189 5.50616C3.64911 5.32753 3.68227 5.15015 3.74938 4.98458C3.8165 4.819 3.91621 4.6686 4.04258 4.54232C4.16896 4.41603 4.31943 4.31643 4.48505 4.24943C4.65067 4.18243 4.82807 4.1494 5.00671 4.1523C5.18534 4.1552 5.36158 4.19398 5.52493 4.26632C5.68829 4.33866 5.83545 4.44309 5.95766 4.57341ZM13.5003 0.666748C13.8539 0.666748 14.1931 0.807224 14.4431 1.05727C14.6932 1.30732 14.8337 1.64646 14.8337 2.00008V3.33341C14.8337 3.68704 14.6932 4.02618 14.4431 4.27622C14.1931 4.52627 13.8539 4.66675 13.5003 4.66675C13.1467 4.66675 12.8076 4.52627 12.5575 4.27622C12.3075 4.02618 12.167 3.68704 12.167 3.33341V2.00008C12.167 1.64646 12.3075 1.30732 12.5575 1.05727C12.8076 0.807224 13.1467 0.666748 13.5003 0.666748ZM2.83366 18.0001C2.48004 18.0001 2.1409 18.1406 1.89085 18.3906C1.6408 18.6407 1.50033 18.9798 1.50033 19.3334C1.50033 19.687 1.6408 20.0262 1.89085 20.2762C2.1409 20.5263 2.48004 20.6667 2.83366 20.6667H24.167C24.5206 20.6667 24.8598 20.5263 25.1098 20.2762C25.3598 20.0262 25.5003 19.687 25.5003 19.3334C25.5003 18.9798 25.3598 18.6407 25.1098 18.3906C24.8598 18.1406 24.5206 18.0001 24.167 18.0001H2.83366ZM6.83366 23.3334C6.48004 23.3334 6.1409 23.4739 5.89085 23.7239C5.6408 23.974 5.50033 24.3131 5.50033 24.6667C5.50033 25.0204 5.6408 25.3595 5.89085 25.6096C6.1409 25.8596 6.48004 26.0001 6.83366 26.0001H20.167C20.5206 26.0001 20.8598 25.8596 21.1098 25.6096C21.3598 25.3595 21.5003 25.0204 21.5003 24.6667C21.5003 24.3131 21.3598 23.974 21.1098 23.7239C20.8598 23.4739 20.5206 23.3334 20.167 23.3334H6.83366Z" fill="#FB7D10"/>
<path d="M13.2777 9.99999L13.2777 15.3333M13.2777 15.3333L15.9443 12.6667M13.2777 15.3333L10.611 12.6667" stroke="#E9E9E9" stroke-width="1.5" stroke-linecap="round" stroke-linejoin="round"/>
</svg>
